<mxfile host="app.diagrams.net" modified="2023-07-14T15:03:30.988Z" agent="Mozilla/5.0 (Windows NT 10.0; Win64; x64) AppleWebKit/537.36 (KHTML, like Gecko) Chrome/114.0.0.0 Safari/537.36 Edg/114.0.1823.79" etag="er_uLEjNHLiPuNKpPzyR" version="21.3.2" type="device">
  <diagram id="C5RBs43oDa-KdzZeNtuy" name="Page-1">
    <mxGraphModel dx="1235" dy="636" grid="1" gridSize="10" guides="1" tooltips="1" connect="1" arrows="1" fold="1" page="1" pageScale="1" pageWidth="827" pageHeight="1169" math="0" shadow="0">
      <root>
        <mxCell id="WIyWlLk6GJQsqaUBKTNV-0" />
        <mxCell id="WIyWlLk6GJQsqaUBKTNV-1" parent="WIyWlLk6GJQsqaUBKTNV-0" />
        <mxCell id="t3xSWHdkKv4YtAVHikGC-6" value="" style="edgeStyle=orthogonalEdgeStyle;rounded=0;orthogonalLoop=1;jettySize=auto;html=1;exitX=0.644;exitY=0.564;exitDx=0;exitDy=0;exitPerimeter=0;" edge="1" parent="WIyWlLk6GJQsqaUBKTNV-1" source="t3xSWHdkKv4YtAVHikGC-31" target="t3xSWHdkKv4YtAVHikGC-33">
          <mxGeometry relative="1" as="geometry">
            <mxPoint x="170" y="265" as="sourcePoint" />
            <mxPoint x="260" y="265" as="targetPoint" />
            <Array as="points">
              <mxPoint x="160" y="265" />
              <mxPoint x="160" y="265" />
            </Array>
          </mxGeometry>
        </mxCell>
        <mxCell id="t3xSWHdkKv4YtAVHikGC-9" value="NO" style="edgeStyle=orthogonalEdgeStyle;rounded=0;orthogonalLoop=1;jettySize=auto;html=1;exitX=1;exitY=0.5;exitDx=0;exitDy=0;" edge="1" parent="WIyWlLk6GJQsqaUBKTNV-1" source="t3xSWHdkKv4YtAVHikGC-24" target="t3xSWHdkKv4YtAVHikGC-8">
          <mxGeometry relative="1" as="geometry">
            <mxPoint x="530" y="260" as="sourcePoint" />
          </mxGeometry>
        </mxCell>
        <mxCell id="t3xSWHdkKv4YtAVHikGC-13" value="" style="edgeStyle=orthogonalEdgeStyle;rounded=0;orthogonalLoop=1;jettySize=auto;html=1;" edge="1" parent="WIyWlLk6GJQsqaUBKTNV-1" source="t3xSWHdkKv4YtAVHikGC-8" target="t3xSWHdkKv4YtAVHikGC-12">
          <mxGeometry relative="1" as="geometry" />
        </mxCell>
        <mxCell id="t3xSWHdkKv4YtAVHikGC-8" value="Create list of OptExams for all Programme Study&#39;s exams&amp;nbsp;" style="rounded=1;whiteSpace=wrap;html=1;" vertex="1" parent="WIyWlLk6GJQsqaUBKTNV-1">
          <mxGeometry x="590" y="235" width="120" height="60" as="geometry" />
        </mxCell>
        <mxCell id="t3xSWHdkKv4YtAVHikGC-15" value="NO" style="edgeStyle=orthogonalEdgeStyle;rounded=0;orthogonalLoop=1;jettySize=auto;html=1;" edge="1" parent="WIyWlLk6GJQsqaUBKTNV-1" source="t3xSWHdkKv4YtAVHikGC-12" target="t3xSWHdkKv4YtAVHikGC-14">
          <mxGeometry relative="1" as="geometry" />
        </mxCell>
        <mxCell id="t3xSWHdkKv4YtAVHikGC-17" value="YES" style="edgeStyle=orthogonalEdgeStyle;rounded=0;orthogonalLoop=1;jettySize=auto;html=1;entryX=0;entryY=0.5;entryDx=0;entryDy=0;" edge="1" parent="WIyWlLk6GJQsqaUBKTNV-1" source="t3xSWHdkKv4YtAVHikGC-12" target="t3xSWHdkKv4YtAVHikGC-16">
          <mxGeometry relative="1" as="geometry">
            <Array as="points">
              <mxPoint x="815" y="120" />
            </Array>
          </mxGeometry>
        </mxCell>
        <mxCell id="t3xSWHdkKv4YtAVHikGC-12" value="Are there elements in Results[i-1]?" style="rhombus;whiteSpace=wrap;html=1;" vertex="1" parent="WIyWlLk6GJQsqaUBKTNV-1">
          <mxGeometry x="760" y="215" width="110" height="100" as="geometry" />
        </mxCell>
        <mxCell id="t3xSWHdkKv4YtAVHikGC-27" value="" style="edgeStyle=orthogonalEdgeStyle;rounded=0;orthogonalLoop=1;jettySize=auto;html=1;" edge="1" parent="WIyWlLk6GJQsqaUBKTNV-1" source="t3xSWHdkKv4YtAVHikGC-14" target="t3xSWHdkKv4YtAVHikGC-26">
          <mxGeometry relative="1" as="geometry" />
        </mxCell>
        <mxCell id="t3xSWHdkKv4YtAVHikGC-14" value="Solve Scheduling for all optExam for ProgrammeStudy[i]" style="rounded=1;whiteSpace=wrap;html=1;" vertex="1" parent="WIyWlLk6GJQsqaUBKTNV-1">
          <mxGeometry x="950" y="235" width="120" height="60" as="geometry" />
        </mxCell>
        <mxCell id="t3xSWHdkKv4YtAVHikGC-19" value="" style="edgeStyle=orthogonalEdgeStyle;rounded=0;orthogonalLoop=1;jettySize=auto;html=1;entryX=0.408;entryY=-0.003;entryDx=0;entryDy=0;entryPerimeter=0;exitX=1;exitY=0.5;exitDx=0;exitDy=0;" edge="1" parent="WIyWlLk6GJQsqaUBKTNV-1" source="t3xSWHdkKv4YtAVHikGC-16" target="t3xSWHdkKv4YtAVHikGC-14">
          <mxGeometry relative="1" as="geometry">
            <mxPoint x="955" y="80" as="targetPoint" />
          </mxGeometry>
        </mxCell>
        <mxCell id="t3xSWHdkKv4YtAVHikGC-16" value="Update assigned Dates of common element" style="rounded=1;whiteSpace=wrap;html=1;" vertex="1" parent="WIyWlLk6GJQsqaUBKTNV-1">
          <mxGeometry x="850" y="90" width="120" height="60" as="geometry" />
        </mxCell>
        <mxCell id="t3xSWHdkKv4YtAVHikGC-30" value="YES" style="edgeStyle=orthogonalEdgeStyle;rounded=0;orthogonalLoop=1;jettySize=auto;html=1;" edge="1" parent="WIyWlLk6GJQsqaUBKTNV-1" source="t3xSWHdkKv4YtAVHikGC-24" target="t3xSWHdkKv4YtAVHikGC-32">
          <mxGeometry relative="1" as="geometry">
            <mxPoint x="460" y="435" as="targetPoint" />
          </mxGeometry>
        </mxCell>
        <mxCell id="t3xSWHdkKv4YtAVHikGC-24" value="Have all the ProgrammeStudy in the school been scheduled?" style="rhombus;whiteSpace=wrap;html=1;" vertex="1" parent="WIyWlLk6GJQsqaUBKTNV-1">
          <mxGeometry x="380" y="220" width="160" height="90" as="geometry" />
        </mxCell>
        <mxCell id="t3xSWHdkKv4YtAVHikGC-28" style="edgeStyle=orthogonalEdgeStyle;rounded=0;orthogonalLoop=1;jettySize=auto;html=1;entryX=0.5;entryY=0;entryDx=0;entryDy=0;" edge="1" parent="WIyWlLk6GJQsqaUBKTNV-1" source="t3xSWHdkKv4YtAVHikGC-26" target="t3xSWHdkKv4YtAVHikGC-24">
          <mxGeometry relative="1" as="geometry">
            <Array as="points">
              <mxPoint x="1320" y="260" />
              <mxPoint x="1320" y="60" />
              <mxPoint x="460" y="60" />
            </Array>
          </mxGeometry>
        </mxCell>
        <mxCell id="t3xSWHdkKv4YtAVHikGC-26" value="Add the resulting optExams in results[i]" style="whiteSpace=wrap;html=1;rounded=1;" vertex="1" parent="WIyWlLk6GJQsqaUBKTNV-1">
          <mxGeometry x="1150" y="235" width="120" height="60" as="geometry" />
        </mxCell>
        <mxCell id="t3xSWHdkKv4YtAVHikGC-31" value="" style="shape=waypoint;sketch=0;size=6;pointerEvents=1;points=[];fillColor=default;resizable=0;rotatable=0;perimeter=centerPerimeter;snapToPoint=1;fontSize=17;" vertex="1" parent="WIyWlLk6GJQsqaUBKTNV-1">
          <mxGeometry x="100" y="255" width="20" height="20" as="geometry" />
        </mxCell>
        <mxCell id="t3xSWHdkKv4YtAVHikGC-32" value="Calendar is produced" style="rounded=1;whiteSpace=wrap;html=1;" vertex="1" parent="WIyWlLk6GJQsqaUBKTNV-1">
          <mxGeometry x="390" y="390" width="140" height="60" as="geometry" />
        </mxCell>
        <mxCell id="t3xSWHdkKv4YtAVHikGC-34" style="edgeStyle=orthogonalEdgeStyle;rounded=0;orthogonalLoop=1;jettySize=auto;html=1;entryX=0;entryY=0.5;entryDx=0;entryDy=0;" edge="1" parent="WIyWlLk6GJQsqaUBKTNV-1" source="t3xSWHdkKv4YtAVHikGC-33" target="t3xSWHdkKv4YtAVHikGC-24">
          <mxGeometry relative="1" as="geometry" />
        </mxCell>
        <mxCell id="t3xSWHdkKv4YtAVHikGC-33" value="Start optimization for a Session related to a specific School" style="rounded=1;whiteSpace=wrap;html=1;" vertex="1" parent="WIyWlLk6GJQsqaUBKTNV-1">
          <mxGeometry x="220" y="235" width="120" height="60" as="geometry" />
        </mxCell>
      </root>
    </mxGraphModel>
  </diagram>
</mxfile>
